<mxfile host="app.diagrams.net" modified="2023-12-06T05:14:06.758Z" agent="Mozilla/5.0 (Windows NT 10.0; Win64; x64) AppleWebKit/537.36 (KHTML, like Gecko) Chrome/119.0.0.0 Safari/537.36 Edg/119.0.0.0" etag="t-mwgEcgNy2OP8QOz5Un" version="22.1.5" type="device" pages="4">
  <diagram id="7hqhKCo7oyYA-x5CgtDA" name="Page-1">
    <mxGraphModel dx="1962" dy="1573" grid="1" gridSize="10" guides="1" tooltips="1" connect="1" arrows="1" fold="1" page="1" pageScale="1" pageWidth="850" pageHeight="1100" math="0" shadow="0">
      <root>
        <mxCell id="0" />
        <mxCell id="1" parent="0" />
        <mxCell id="ObviqZxmn49x7aZ2OTzd-47" value="" style="line;strokeWidth=2;direction=south;html=1;fillColor=#f5f5f5;fontColor=#333333;strokeColor=#666666;" parent="1" vertex="1">
          <mxGeometry x="390" y="-60" width="10" height="550" as="geometry" />
        </mxCell>
        <mxCell id="ObviqZxmn49x7aZ2OTzd-48" value="Quản trị viên/ Nhân viên" style="shape=umlLifeline;perimeter=lifelinePerimeter;whiteSpace=wrap;html=1;container=1;dropTarget=0;collapsible=0;recursiveResize=0;outlineConnect=0;portConstraint=eastwest;newEdgeStyle={&quot;curved&quot;:0,&quot;rounded&quot;:0};" parent="1" vertex="1">
          <mxGeometry x="-140" y="40" width="100" height="640" as="geometry" />
        </mxCell>
        <mxCell id="ObviqZxmn49x7aZ2OTzd-49" value="" style="html=1;points=[[0,0,0,0,5],[0,1,0,0,-5],[1,0,0,0,5],[1,1,0,0,-5]];perimeter=orthogonalPerimeter;outlineConnect=0;targetShapes=umlLifeline;portConstraint=eastwest;newEdgeStyle={&quot;curved&quot;:0,&quot;rounded&quot;:0};" parent="ObviqZxmn49x7aZ2OTzd-48" vertex="1">
          <mxGeometry x="45" y="80" width="10" height="230" as="geometry" />
        </mxCell>
        <mxCell id="ObviqZxmn49x7aZ2OTzd-50" value="Form" style="shape=umlLifeline;perimeter=lifelinePerimeter;whiteSpace=wrap;html=1;container=1;dropTarget=0;collapsible=0;recursiveResize=0;outlineConnect=0;portConstraint=eastwest;newEdgeStyle={&quot;curved&quot;:0,&quot;rounded&quot;:0};" parent="1" vertex="1">
          <mxGeometry x="60" y="40" width="100" height="640" as="geometry" />
        </mxCell>
        <mxCell id="ObviqZxmn49x7aZ2OTzd-51" value="" style="html=1;points=[[0,0,0,0,5],[0,1,0,0,-5],[1,0,0,0,5],[1,1,0,0,-5]];perimeter=orthogonalPerimeter;outlineConnect=0;targetShapes=umlLifeline;portConstraint=eastwest;newEdgeStyle={&quot;curved&quot;:0,&quot;rounded&quot;:0};" parent="ObviqZxmn49x7aZ2OTzd-50" vertex="1">
          <mxGeometry x="45" y="80" width="10" height="40" as="geometry" />
        </mxCell>
        <mxCell id="ObviqZxmn49x7aZ2OTzd-52" value="" style="html=1;points=[[0,0,0,0,5],[0,1,0,0,-5],[1,0,0,0,5],[1,1,0,0,-5]];perimeter=orthogonalPerimeter;outlineConnect=0;targetShapes=umlLifeline;portConstraint=eastwest;newEdgeStyle={&quot;curved&quot;:0,&quot;rounded&quot;:0};" parent="ObviqZxmn49x7aZ2OTzd-50" vertex="1">
          <mxGeometry x="45" y="160" width="10" height="120" as="geometry" />
        </mxCell>
        <mxCell id="ObviqZxmn49x7aZ2OTzd-53" value="" style="html=1;points=[[0,0,0,0,5],[0,1,0,0,-5],[1,0,0,0,5],[1,1,0,0,-5]];perimeter=orthogonalPerimeter;outlineConnect=0;targetShapes=umlLifeline;portConstraint=eastwest;newEdgeStyle={&quot;curved&quot;:0,&quot;rounded&quot;:0};" parent="ObviqZxmn49x7aZ2OTzd-50" vertex="1">
          <mxGeometry x="45" y="310" width="10" height="20" as="geometry" />
        </mxCell>
        <mxCell id="ObviqZxmn49x7aZ2OTzd-54" value="" style="html=1;points=[[0,0,0,0,5],[0,1,0,0,-5],[1,0,0,0,5],[1,1,0,0,-5]];perimeter=orthogonalPerimeter;outlineConnect=0;targetShapes=umlLifeline;portConstraint=eastwest;newEdgeStyle={&quot;curved&quot;:0,&quot;rounded&quot;:0};" parent="ObviqZxmn49x7aZ2OTzd-50" vertex="1">
          <mxGeometry x="45" y="400" width="10" height="20" as="geometry" />
        </mxCell>
        <mxCell id="ObviqZxmn49x7aZ2OTzd-55" value="" style="html=1;points=[[0,0,0,0,5],[0,1,0,0,-5],[1,0,0,0,5],[1,1,0,0,-5]];perimeter=orthogonalPerimeter;outlineConnect=0;targetShapes=umlLifeline;portConstraint=eastwest;newEdgeStyle={&quot;curved&quot;:0,&quot;rounded&quot;:0};" parent="ObviqZxmn49x7aZ2OTzd-50" vertex="1">
          <mxGeometry x="45" y="510" width="10" height="20" as="geometry" />
        </mxCell>
        <mxCell id="ObviqZxmn49x7aZ2OTzd-56" value="Controller" style="shape=umlLifeline;perimeter=lifelinePerimeter;whiteSpace=wrap;html=1;container=1;dropTarget=0;collapsible=0;recursiveResize=0;outlineConnect=0;portConstraint=eastwest;newEdgeStyle={&quot;curved&quot;:0,&quot;rounded&quot;:0};" parent="1" vertex="1">
          <mxGeometry x="440" y="40" width="100" height="640" as="geometry" />
        </mxCell>
        <mxCell id="ObviqZxmn49x7aZ2OTzd-57" value="" style="html=1;points=[[0,0,0,0,5],[0,1,0,0,-5],[1,0,0,0,5],[1,1,0,0,-5]];perimeter=orthogonalPerimeter;outlineConnect=0;targetShapes=umlLifeline;portConstraint=eastwest;newEdgeStyle={&quot;curved&quot;:0,&quot;rounded&quot;:0};" parent="ObviqZxmn49x7aZ2OTzd-56" vertex="1">
          <mxGeometry x="45" y="350" width="10" height="190" as="geometry" />
        </mxCell>
        <mxCell id="ObviqZxmn49x7aZ2OTzd-58" value="9. Kiểm tra định dạng" style="html=1;align=left;spacingLeft=2;endArrow=block;rounded=0;edgeStyle=orthogonalEdgeStyle;curved=0;rounded=0;exitX=0.5;exitY=0;exitDx=0;exitDy=0;exitPerimeter=0;" parent="ObviqZxmn49x7aZ2OTzd-56" source="ObviqZxmn49x7aZ2OTzd-57" target="ObviqZxmn49x7aZ2OTzd-59" edge="1">
          <mxGeometry x="0.0026" relative="1" as="geometry">
            <mxPoint x="60" y="350" as="sourcePoint" />
            <Array as="points">
              <mxPoint x="90" y="350" />
              <mxPoint x="90" y="400" />
            </Array>
            <mxPoint as="offset" />
          </mxGeometry>
        </mxCell>
        <mxCell id="ObviqZxmn49x7aZ2OTzd-59" value="" style="html=1;points=[[0,0,0,0,5],[0,1,0,0,-5],[1,0,0,0,5],[1,1,0,0,-5]];perimeter=orthogonalPerimeter;outlineConnect=0;targetShapes=umlLifeline;portConstraint=eastwest;newEdgeStyle={&quot;curved&quot;:0,&quot;rounded&quot;:0};" parent="ObviqZxmn49x7aZ2OTzd-56" vertex="1">
          <mxGeometry x="55" y="380" width="10" height="40" as="geometry" />
        </mxCell>
        <mxCell id="ObviqZxmn49x7aZ2OTzd-60" value="" style="html=1;points=[[0,0,0,0,5],[0,1,0,0,-5],[1,0,0,0,5],[1,1,0,0,-5]];perimeter=orthogonalPerimeter;outlineConnect=0;targetShapes=umlLifeline;portConstraint=eastwest;newEdgeStyle={&quot;curved&quot;:0,&quot;rounded&quot;:0};" parent="ObviqZxmn49x7aZ2OTzd-56" vertex="1">
          <mxGeometry x="55" y="469.99" width="10" height="50.01" as="geometry" />
        </mxCell>
        <mxCell id="ObviqZxmn49x7aZ2OTzd-61" value="11. Kiểm tra" style="html=1;align=left;spacingLeft=2;endArrow=block;rounded=0;edgeStyle=orthogonalEdgeStyle;curved=0;rounded=0;" parent="ObviqZxmn49x7aZ2OTzd-56" target="ObviqZxmn49x7aZ2OTzd-60" edge="1">
          <mxGeometry relative="1" as="geometry">
            <mxPoint x="55" y="460.00176470588235" as="sourcePoint" />
            <Array as="points">
              <mxPoint x="90" y="460" />
              <mxPoint x="90" y="480" />
            </Array>
          </mxGeometry>
        </mxCell>
        <mxCell id="ObviqZxmn49x7aZ2OTzd-62" value="2. Yêu cầu nhập thông tin danh mục" style="html=1;verticalAlign=bottom;endArrow=open;dashed=1;endSize=8;curved=0;rounded=0;" parent="1" source="ObviqZxmn49x7aZ2OTzd-50" target="ObviqZxmn49x7aZ2OTzd-49" edge="1">
          <mxGeometry relative="1" as="geometry">
            <mxPoint x="70" y="160" as="sourcePoint" />
            <mxPoint x="-10" y="160" as="targetPoint" />
            <Array as="points">
              <mxPoint x="-10" y="160" />
            </Array>
          </mxGeometry>
        </mxCell>
        <mxCell id="ObviqZxmn49x7aZ2OTzd-63" value="3. Nhập thông tin danh mục" style="html=1;verticalAlign=bottom;endArrow=block;curved=0;rounded=0;" parent="1" source="ObviqZxmn49x7aZ2OTzd-49" edge="1">
          <mxGeometry width="80" relative="1" as="geometry">
            <mxPoint x="-80" y="200" as="sourcePoint" />
            <mxPoint x="110" y="200" as="targetPoint" />
          </mxGeometry>
        </mxCell>
        <mxCell id="ObviqZxmn49x7aZ2OTzd-64" value="1. Gửi yêu cầu thêm danh mục&amp;nbsp;" style="html=1;verticalAlign=bottom;endArrow=block;curved=0;rounded=0;" parent="1" edge="1">
          <mxGeometry width="80" relative="1" as="geometry">
            <mxPoint x="-85" y="120" as="sourcePoint" />
            <mxPoint x="110" y="120" as="targetPoint" />
          </mxGeometry>
        </mxCell>
        <mxCell id="ObviqZxmn49x7aZ2OTzd-65" value="8. CREATE: Gửi yêu cầu thêm" style="html=1;verticalAlign=bottom;endArrow=block;curved=0;rounded=0;" parent="1" edge="1">
          <mxGeometry width="80" relative="1" as="geometry">
            <mxPoint x="280" y="390" as="sourcePoint" />
            <mxPoint x="485" y="390" as="targetPoint" />
          </mxGeometry>
        </mxCell>
        <mxCell id="ObviqZxmn49x7aZ2OTzd-66" value="9.1. Sai: status code: 400" style="html=1;verticalAlign=bottom;endArrow=open;dashed=1;endSize=8;curved=0;rounded=0;" parent="1" edge="1">
          <mxGeometry relative="1" as="geometry">
            <mxPoint x="479.5" y="420" as="sourcePoint" />
            <mxPoint x="280" y="420" as="targetPoint" />
            <Array as="points">
              <mxPoint x="355" y="420" />
            </Array>
          </mxGeometry>
        </mxCell>
        <mxCell id="ObviqZxmn49x7aZ2OTzd-67" value="Database" style="shape=umlLifeline;perimeter=lifelinePerimeter;whiteSpace=wrap;html=1;container=1;dropTarget=0;collapsible=0;recursiveResize=0;outlineConnect=0;portConstraint=eastwest;newEdgeStyle={&quot;curved&quot;:0,&quot;rounded&quot;:0};" parent="1" vertex="1">
          <mxGeometry x="640" y="40" width="100" height="640" as="geometry" />
        </mxCell>
        <mxCell id="ObviqZxmn49x7aZ2OTzd-68" value="" style="html=1;points=[[0,0,0,0,5],[0,1,0,0,-5],[1,0,0,0,5],[1,1,0,0,-5]];perimeter=orthogonalPerimeter;outlineConnect=0;targetShapes=umlLifeline;portConstraint=eastwest;newEdgeStyle={&quot;curved&quot;:0,&quot;rounded&quot;:0};" parent="ObviqZxmn49x7aZ2OTzd-67" vertex="1">
          <mxGeometry x="45" y="420" width="10" height="90" as="geometry" />
        </mxCell>
        <mxCell id="ObviqZxmn49x7aZ2OTzd-69" value="" style="line;strokeWidth=2;html=1;fillColor=#f5f5f5;fontColor=#333333;strokeColor=#666666;" parent="1" vertex="1">
          <mxGeometry x="-160" width="930" height="10" as="geometry" />
        </mxCell>
        <mxCell id="ObviqZxmn49x7aZ2OTzd-70" value="Server" style="text;html=1;align=center;verticalAlign=middle;resizable=0;points=[];autosize=1;strokeColor=none;fillColor=none;" parent="1" vertex="1">
          <mxGeometry x="570" y="-30" width="60" height="30" as="geometry" />
        </mxCell>
        <mxCell id="ObviqZxmn49x7aZ2OTzd-71" value="Client" style="text;html=1;align=center;verticalAlign=middle;resizable=0;points=[];autosize=1;strokeColor=none;fillColor=none;" parent="1" vertex="1">
          <mxGeometry x="145" y="-30" width="50" height="30" as="geometry" />
        </mxCell>
        <mxCell id="ObviqZxmn49x7aZ2OTzd-72" value="ViewModel" style="shape=umlLifeline;perimeter=lifelinePerimeter;whiteSpace=wrap;html=1;container=1;dropTarget=0;collapsible=0;recursiveResize=0;outlineConnect=0;portConstraint=eastwest;newEdgeStyle={&quot;curved&quot;:0,&quot;rounded&quot;:0};" parent="1" vertex="1">
          <mxGeometry x="230" y="40" width="100" height="640" as="geometry" />
        </mxCell>
        <mxCell id="ObviqZxmn49x7aZ2OTzd-73" value="" style="html=1;points=[[0,0,0,0,5],[0,1,0,0,-5],[1,0,0,0,5],[1,1,0,0,-5]];perimeter=orthogonalPerimeter;outlineConnect=0;targetShapes=umlLifeline;portConstraint=eastwest;newEdgeStyle={&quot;curved&quot;:0,&quot;rounded&quot;:0};" parent="ObviqZxmn49x7aZ2OTzd-72" vertex="1">
          <mxGeometry x="45" y="170" width="10" height="110" as="geometry" />
        </mxCell>
        <mxCell id="ObviqZxmn49x7aZ2OTzd-74" value="5. Kiểm tra định dạng" style="html=1;align=left;spacingLeft=2;endArrow=block;rounded=0;edgeStyle=orthogonalEdgeStyle;curved=0;rounded=0;" parent="ObviqZxmn49x7aZ2OTzd-72" target="ObviqZxmn49x7aZ2OTzd-75" edge="1">
          <mxGeometry relative="1" as="geometry">
            <mxPoint x="55" y="170" as="sourcePoint" />
            <Array as="points">
              <mxPoint x="85" y="200" />
            </Array>
          </mxGeometry>
        </mxCell>
        <mxCell id="ObviqZxmn49x7aZ2OTzd-75" value="" style="html=1;points=[[0,0,0,0,5],[0,1,0,0,-5],[1,0,0,0,5],[1,1,0,0,-5]];perimeter=orthogonalPerimeter;outlineConnect=0;targetShapes=umlLifeline;portConstraint=eastwest;newEdgeStyle={&quot;curved&quot;:0,&quot;rounded&quot;:0};" parent="ObviqZxmn49x7aZ2OTzd-72" vertex="1">
          <mxGeometry x="50" y="190" width="10" height="70" as="geometry" />
        </mxCell>
        <mxCell id="ObviqZxmn49x7aZ2OTzd-76" value="" style="html=1;points=[[0,0,0,0,5],[0,1,0,0,-5],[1,0,0,0,5],[1,1,0,0,-5]];perimeter=orthogonalPerimeter;outlineConnect=0;targetShapes=umlLifeline;portConstraint=eastwest;newEdgeStyle={&quot;curved&quot;:0,&quot;rounded&quot;:0};" parent="ObviqZxmn49x7aZ2OTzd-72" vertex="1">
          <mxGeometry x="45" y="330" width="10" height="20" as="geometry" />
        </mxCell>
        <mxCell id="ObviqZxmn49x7aZ2OTzd-77" value="" style="html=1;points=[[0,0,0,0,5],[0,1,0,0,-5],[1,0,0,0,5],[1,1,0,0,-5]];perimeter=orthogonalPerimeter;outlineConnect=0;targetShapes=umlLifeline;portConstraint=eastwest;newEdgeStyle={&quot;curved&quot;:0,&quot;rounded&quot;:0};" parent="ObviqZxmn49x7aZ2OTzd-72" vertex="1">
          <mxGeometry x="45" y="380" width="10" height="20" as="geometry" />
        </mxCell>
        <mxCell id="ObviqZxmn49x7aZ2OTzd-78" value="" style="html=1;points=[[0,0,0,0,5],[0,1,0,0,-5],[1,0,0,0,5],[1,1,0,0,-5]];perimeter=orthogonalPerimeter;outlineConnect=0;targetShapes=umlLifeline;portConstraint=eastwest;newEdgeStyle={&quot;curved&quot;:0,&quot;rounded&quot;:0};" parent="ObviqZxmn49x7aZ2OTzd-72" vertex="1">
          <mxGeometry x="45" y="490" width="10" height="110" as="geometry" />
        </mxCell>
        <mxCell id="ObviqZxmn49x7aZ2OTzd-79" value="4. Gửi thông tin danh mục" style="html=1;verticalAlign=bottom;endArrow=block;curved=0;rounded=0;" parent="1" source="ObviqZxmn49x7aZ2OTzd-52" edge="1">
          <mxGeometry width="80" relative="1" as="geometry">
            <mxPoint x="120" y="215" as="sourcePoint" />
            <mxPoint x="275" y="214.88" as="targetPoint" />
          </mxGeometry>
        </mxCell>
        <mxCell id="ObviqZxmn49x7aZ2OTzd-80" value="" style="line;strokeWidth=2;direction=south;html=1;fillColor=#f5f5f5;fontColor=#333333;strokeColor=#666666;" parent="1" vertex="1">
          <mxGeometry x="390" y="-20" width="10" height="700" as="geometry" />
        </mxCell>
        <mxCell id="ObviqZxmn49x7aZ2OTzd-81" value="11.2.1. Hiển thị thông báo thêm danh mục thành công,&lt;br&gt;cập nhật lại danh sách danh mục mới" style="html=1;verticalAlign=bottom;endArrow=open;dashed=1;endSize=8;curved=0;rounded=0;" parent="1" source="ObviqZxmn49x7aZ2OTzd-72" target="ObviqZxmn49x7aZ2OTzd-48" edge="1">
          <mxGeometry x="-0.0588" relative="1" as="geometry">
            <mxPoint x="257.5" y="640" as="sourcePoint" />
            <mxPoint x="82.5" y="640" as="targetPoint" />
            <Array as="points">
              <mxPoint x="137.5" y="640" />
            </Array>
            <mxPoint as="offset" />
          </mxGeometry>
        </mxCell>
        <mxCell id="ObviqZxmn49x7aZ2OTzd-82" value="5.1. Sai: hiển thị thông báo lỗi" style="html=1;verticalAlign=bottom;endArrow=open;dashed=1;endSize=8;curved=0;rounded=0;" parent="1" source="ObviqZxmn49x7aZ2OTzd-75" edge="1">
          <mxGeometry relative="1" as="geometry">
            <mxPoint x="269.75" y="249.38" as="sourcePoint" />
            <mxPoint x="110" y="249" as="targetPoint" />
            <Array as="points" />
          </mxGeometry>
        </mxCell>
        <mxCell id="ObviqZxmn49x7aZ2OTzd-83" value="5.2. Đúng: không hiện thị &lt;br&gt;thông báo lỗi" style="html=1;verticalAlign=bottom;endArrow=open;dashed=1;endSize=8;curved=0;rounded=0;" parent="1" edge="1">
          <mxGeometry relative="1" as="geometry">
            <mxPoint x="280" y="300" as="sourcePoint" />
            <mxPoint x="110" y="300" as="targetPoint" />
            <Array as="points" />
          </mxGeometry>
        </mxCell>
        <mxCell id="ObviqZxmn49x7aZ2OTzd-84" value="6. Nhấn thêm danh mục" style="html=1;verticalAlign=bottom;endArrow=block;curved=0;rounded=0;" parent="1" edge="1">
          <mxGeometry width="80" relative="1" as="geometry">
            <mxPoint x="-85" y="350" as="sourcePoint" />
            <mxPoint x="110" y="350" as="targetPoint" />
          </mxGeometry>
        </mxCell>
        <mxCell id="ObviqZxmn49x7aZ2OTzd-85" value="7. Gửi thông tin danh mục" style="html=1;verticalAlign=bottom;endArrow=block;curved=0;rounded=0;" parent="1" edge="1">
          <mxGeometry width="80" relative="1" as="geometry">
            <mxPoint x="115" y="370.12" as="sourcePoint" />
            <mxPoint x="275" y="370" as="targetPoint" />
          </mxGeometry>
        </mxCell>
        <mxCell id="ObviqZxmn49x7aZ2OTzd-86" value="9.1.1. Hiển thị thông báo lỗi" style="html=1;verticalAlign=bottom;endArrow=open;dashed=1;endSize=8;curved=0;rounded=0;" parent="1" edge="1">
          <mxGeometry relative="1" as="geometry">
            <mxPoint x="279.5" y="440" as="sourcePoint" />
            <mxPoint x="110" y="440" as="targetPoint" />
            <Array as="points">
              <mxPoint x="155" y="440" />
            </Array>
          </mxGeometry>
        </mxCell>
        <mxCell id="ObviqZxmn49x7aZ2OTzd-87" value="9.2. Đúng: truy vấn dữ liệu" style="html=1;verticalAlign=bottom;endArrow=block;curved=0;rounded=0;" parent="1" edge="1">
          <mxGeometry width="80" relative="1" as="geometry">
            <mxPoint x="500" y="460" as="sourcePoint" />
            <mxPoint x="690" y="460" as="targetPoint" />
          </mxGeometry>
        </mxCell>
        <mxCell id="ObviqZxmn49x7aZ2OTzd-88" value="10. Trả kết quả" style="html=1;verticalAlign=bottom;endArrow=open;dashed=1;endSize=8;curved=0;rounded=0;" parent="1" target="ObviqZxmn49x7aZ2OTzd-56" edge="1">
          <mxGeometry relative="1" as="geometry">
            <mxPoint x="680" y="490" as="sourcePoint" />
            <mxPoint x="530" y="490" as="targetPoint" />
            <Array as="points" />
          </mxGeometry>
        </mxCell>
        <mxCell id="ObviqZxmn49x7aZ2OTzd-89" value="11.1. Thất bại: Status code 400" style="html=1;verticalAlign=bottom;endArrow=open;dashed=1;endSize=8;curved=0;rounded=0;" parent="1" target="ObviqZxmn49x7aZ2OTzd-72" edge="1">
          <mxGeometry relative="1" as="geometry">
            <mxPoint x="494.75" y="530" as="sourcePoint" />
            <mxPoint x="295.25" y="530" as="targetPoint" />
            <Array as="points" />
          </mxGeometry>
        </mxCell>
        <mxCell id="ObviqZxmn49x7aZ2OTzd-90" value="11.2. Thành công: Status code 200" style="html=1;verticalAlign=bottom;endArrow=open;dashed=1;endSize=8;curved=0;rounded=0;" parent="1" edge="1">
          <mxGeometry relative="1" as="geometry">
            <mxPoint x="494.75" y="560" as="sourcePoint" />
            <mxPoint x="279" y="560" as="targetPoint" />
            <Array as="points" />
          </mxGeometry>
        </mxCell>
        <mxCell id="ObviqZxmn49x7aZ2OTzd-91" value="11.1.1. Hiển thị thông báo lỗi" style="html=1;verticalAlign=bottom;endArrow=open;dashed=1;endSize=8;curved=0;rounded=0;" parent="1" edge="1">
          <mxGeometry relative="1" as="geometry">
            <mxPoint x="270" y="550" as="sourcePoint" />
            <mxPoint x="110" y="550" as="targetPoint" />
            <Array as="points">
              <mxPoint x="145" y="550" />
            </Array>
          </mxGeometry>
        </mxCell>
      </root>
    </mxGraphModel>
  </diagram>
  <diagram id="CVpYEviXI0jbXLVErW-d" name="Page-2">
    <mxGraphModel dx="1962" dy="1573" grid="1" gridSize="10" guides="1" tooltips="1" connect="1" arrows="1" fold="1" page="1" pageScale="1" pageWidth="850" pageHeight="1100" math="0" shadow="0">
      <root>
        <mxCell id="0" />
        <mxCell id="1" parent="0" />
        <mxCell id="e0ECZhF1kEFF1rcQlNnv-1" value="" style="line;strokeWidth=2;direction=south;html=1;fillColor=#f5f5f5;fontColor=#333333;strokeColor=#666666;" parent="1" vertex="1">
          <mxGeometry x="400" y="-50" width="10" height="550" as="geometry" />
        </mxCell>
        <mxCell id="e0ECZhF1kEFF1rcQlNnv-2" value="Quản trị viên/ Nhân viên" style="shape=umlLifeline;perimeter=lifelinePerimeter;whiteSpace=wrap;html=1;container=1;dropTarget=0;collapsible=0;recursiveResize=0;outlineConnect=0;portConstraint=eastwest;newEdgeStyle={&quot;curved&quot;:0,&quot;rounded&quot;:0};" parent="1" vertex="1">
          <mxGeometry x="-130" y="50" width="100" height="640" as="geometry" />
        </mxCell>
        <mxCell id="e0ECZhF1kEFF1rcQlNnv-3" value="" style="html=1;points=[[0,0,0,0,5],[0,1,0,0,-5],[1,0,0,0,5],[1,1,0,0,-5]];perimeter=orthogonalPerimeter;outlineConnect=0;targetShapes=umlLifeline;portConstraint=eastwest;newEdgeStyle={&quot;curved&quot;:0,&quot;rounded&quot;:0};" parent="e0ECZhF1kEFF1rcQlNnv-2" vertex="1">
          <mxGeometry x="45" y="80" width="10" height="230" as="geometry" />
        </mxCell>
        <mxCell id="e0ECZhF1kEFF1rcQlNnv-4" value="Form" style="shape=umlLifeline;perimeter=lifelinePerimeter;whiteSpace=wrap;html=1;container=1;dropTarget=0;collapsible=0;recursiveResize=0;outlineConnect=0;portConstraint=eastwest;newEdgeStyle={&quot;curved&quot;:0,&quot;rounded&quot;:0};" parent="1" vertex="1">
          <mxGeometry x="70" y="50" width="100" height="640" as="geometry" />
        </mxCell>
        <mxCell id="e0ECZhF1kEFF1rcQlNnv-5" value="" style="html=1;points=[[0,0,0,0,5],[0,1,0,0,-5],[1,0,0,0,5],[1,1,0,0,-5]];perimeter=orthogonalPerimeter;outlineConnect=0;targetShapes=umlLifeline;portConstraint=eastwest;newEdgeStyle={&quot;curved&quot;:0,&quot;rounded&quot;:0};" parent="e0ECZhF1kEFF1rcQlNnv-4" vertex="1">
          <mxGeometry x="45" y="80" width="10" height="40" as="geometry" />
        </mxCell>
        <mxCell id="e0ECZhF1kEFF1rcQlNnv-6" value="" style="html=1;points=[[0,0,0,0,5],[0,1,0,0,-5],[1,0,0,0,5],[1,1,0,0,-5]];perimeter=orthogonalPerimeter;outlineConnect=0;targetShapes=umlLifeline;portConstraint=eastwest;newEdgeStyle={&quot;curved&quot;:0,&quot;rounded&quot;:0};" parent="e0ECZhF1kEFF1rcQlNnv-4" vertex="1">
          <mxGeometry x="45" y="160" width="10" height="120" as="geometry" />
        </mxCell>
        <mxCell id="e0ECZhF1kEFF1rcQlNnv-7" value="" style="html=1;points=[[0,0,0,0,5],[0,1,0,0,-5],[1,0,0,0,5],[1,1,0,0,-5]];perimeter=orthogonalPerimeter;outlineConnect=0;targetShapes=umlLifeline;portConstraint=eastwest;newEdgeStyle={&quot;curved&quot;:0,&quot;rounded&quot;:0};" parent="e0ECZhF1kEFF1rcQlNnv-4" vertex="1">
          <mxGeometry x="45" y="310" width="10" height="20" as="geometry" />
        </mxCell>
        <mxCell id="e0ECZhF1kEFF1rcQlNnv-8" value="" style="html=1;points=[[0,0,0,0,5],[0,1,0,0,-5],[1,0,0,0,5],[1,1,0,0,-5]];perimeter=orthogonalPerimeter;outlineConnect=0;targetShapes=umlLifeline;portConstraint=eastwest;newEdgeStyle={&quot;curved&quot;:0,&quot;rounded&quot;:0};" parent="e0ECZhF1kEFF1rcQlNnv-4" vertex="1">
          <mxGeometry x="45" y="400" width="10" height="20" as="geometry" />
        </mxCell>
        <mxCell id="e0ECZhF1kEFF1rcQlNnv-9" value="" style="html=1;points=[[0,0,0,0,5],[0,1,0,0,-5],[1,0,0,0,5],[1,1,0,0,-5]];perimeter=orthogonalPerimeter;outlineConnect=0;targetShapes=umlLifeline;portConstraint=eastwest;newEdgeStyle={&quot;curved&quot;:0,&quot;rounded&quot;:0};" parent="e0ECZhF1kEFF1rcQlNnv-4" vertex="1">
          <mxGeometry x="45" y="510" width="10" height="20" as="geometry" />
        </mxCell>
        <mxCell id="e0ECZhF1kEFF1rcQlNnv-10" value="Controller" style="shape=umlLifeline;perimeter=lifelinePerimeter;whiteSpace=wrap;html=1;container=1;dropTarget=0;collapsible=0;recursiveResize=0;outlineConnect=0;portConstraint=eastwest;newEdgeStyle={&quot;curved&quot;:0,&quot;rounded&quot;:0};" parent="1" vertex="1">
          <mxGeometry x="450" y="50" width="100" height="640" as="geometry" />
        </mxCell>
        <mxCell id="e0ECZhF1kEFF1rcQlNnv-11" value="" style="html=1;points=[[0,0,0,0,5],[0,1,0,0,-5],[1,0,0,0,5],[1,1,0,0,-5]];perimeter=orthogonalPerimeter;outlineConnect=0;targetShapes=umlLifeline;portConstraint=eastwest;newEdgeStyle={&quot;curved&quot;:0,&quot;rounded&quot;:0};" parent="e0ECZhF1kEFF1rcQlNnv-10" vertex="1">
          <mxGeometry x="45" y="350" width="10" height="190" as="geometry" />
        </mxCell>
        <mxCell id="e0ECZhF1kEFF1rcQlNnv-12" value="9. Kiểm tra định dạng" style="html=1;align=left;spacingLeft=2;endArrow=block;rounded=0;edgeStyle=orthogonalEdgeStyle;curved=0;rounded=0;exitX=0.5;exitY=0;exitDx=0;exitDy=0;exitPerimeter=0;" parent="e0ECZhF1kEFF1rcQlNnv-10" source="e0ECZhF1kEFF1rcQlNnv-11" target="e0ECZhF1kEFF1rcQlNnv-13" edge="1">
          <mxGeometry x="0.0026" relative="1" as="geometry">
            <mxPoint x="60" y="350" as="sourcePoint" />
            <Array as="points">
              <mxPoint x="90" y="350" />
              <mxPoint x="90" y="400" />
            </Array>
            <mxPoint as="offset" />
          </mxGeometry>
        </mxCell>
        <mxCell id="e0ECZhF1kEFF1rcQlNnv-13" value="" style="html=1;points=[[0,0,0,0,5],[0,1,0,0,-5],[1,0,0,0,5],[1,1,0,0,-5]];perimeter=orthogonalPerimeter;outlineConnect=0;targetShapes=umlLifeline;portConstraint=eastwest;newEdgeStyle={&quot;curved&quot;:0,&quot;rounded&quot;:0};" parent="e0ECZhF1kEFF1rcQlNnv-10" vertex="1">
          <mxGeometry x="55" y="380" width="10" height="40" as="geometry" />
        </mxCell>
        <mxCell id="e0ECZhF1kEFF1rcQlNnv-14" value="" style="html=1;points=[[0,0,0,0,5],[0,1,0,0,-5],[1,0,0,0,5],[1,1,0,0,-5]];perimeter=orthogonalPerimeter;outlineConnect=0;targetShapes=umlLifeline;portConstraint=eastwest;newEdgeStyle={&quot;curved&quot;:0,&quot;rounded&quot;:0};" parent="e0ECZhF1kEFF1rcQlNnv-10" vertex="1">
          <mxGeometry x="55" y="469.99" width="10" height="50.01" as="geometry" />
        </mxCell>
        <mxCell id="e0ECZhF1kEFF1rcQlNnv-15" value="11. Kiểm tra" style="html=1;align=left;spacingLeft=2;endArrow=block;rounded=0;edgeStyle=orthogonalEdgeStyle;curved=0;rounded=0;" parent="e0ECZhF1kEFF1rcQlNnv-10" target="e0ECZhF1kEFF1rcQlNnv-14" edge="1">
          <mxGeometry relative="1" as="geometry">
            <mxPoint x="55" y="460.00176470588235" as="sourcePoint" />
            <Array as="points">
              <mxPoint x="90" y="460" />
              <mxPoint x="90" y="480" />
            </Array>
          </mxGeometry>
        </mxCell>
        <mxCell id="e0ECZhF1kEFF1rcQlNnv-16" value="2. Yêu cầu nhập thông tin danh mục" style="html=1;verticalAlign=bottom;endArrow=open;dashed=1;endSize=8;curved=0;rounded=0;" parent="1" source="e0ECZhF1kEFF1rcQlNnv-4" target="e0ECZhF1kEFF1rcQlNnv-3" edge="1">
          <mxGeometry relative="1" as="geometry">
            <mxPoint x="80" y="170" as="sourcePoint" />
            <mxPoint y="170" as="targetPoint" />
            <Array as="points">
              <mxPoint y="170" />
            </Array>
          </mxGeometry>
        </mxCell>
        <mxCell id="e0ECZhF1kEFF1rcQlNnv-17" value="3. Nhập thông tin danh mục" style="html=1;verticalAlign=bottom;endArrow=block;curved=0;rounded=0;" parent="1" source="e0ECZhF1kEFF1rcQlNnv-3" edge="1">
          <mxGeometry width="80" relative="1" as="geometry">
            <mxPoint x="-70" y="210" as="sourcePoint" />
            <mxPoint x="120" y="210" as="targetPoint" />
          </mxGeometry>
        </mxCell>
        <mxCell id="e0ECZhF1kEFF1rcQlNnv-18" value="1. Gửi yêu cầu cập nhật danh mục&amp;nbsp;" style="html=1;verticalAlign=bottom;endArrow=block;curved=0;rounded=0;" parent="1" edge="1">
          <mxGeometry width="80" relative="1" as="geometry">
            <mxPoint x="-75" y="130" as="sourcePoint" />
            <mxPoint x="120" y="130" as="targetPoint" />
          </mxGeometry>
        </mxCell>
        <mxCell id="e0ECZhF1kEFF1rcQlNnv-19" value="8. PATCH: Gửi yêu cầu cập nhật" style="html=1;verticalAlign=bottom;endArrow=block;curved=0;rounded=0;" parent="1" edge="1">
          <mxGeometry width="80" relative="1" as="geometry">
            <mxPoint x="290" y="400" as="sourcePoint" />
            <mxPoint x="495" y="400" as="targetPoint" />
          </mxGeometry>
        </mxCell>
        <mxCell id="e0ECZhF1kEFF1rcQlNnv-20" value="9.1. Sai: status code: 400" style="html=1;verticalAlign=bottom;endArrow=open;dashed=1;endSize=8;curved=0;rounded=0;" parent="1" edge="1">
          <mxGeometry relative="1" as="geometry">
            <mxPoint x="489.5" y="430" as="sourcePoint" />
            <mxPoint x="290" y="430" as="targetPoint" />
            <Array as="points">
              <mxPoint x="365" y="430" />
            </Array>
          </mxGeometry>
        </mxCell>
        <mxCell id="e0ECZhF1kEFF1rcQlNnv-21" value="Database" style="shape=umlLifeline;perimeter=lifelinePerimeter;whiteSpace=wrap;html=1;container=1;dropTarget=0;collapsible=0;recursiveResize=0;outlineConnect=0;portConstraint=eastwest;newEdgeStyle={&quot;curved&quot;:0,&quot;rounded&quot;:0};" parent="1" vertex="1">
          <mxGeometry x="650" y="50" width="100" height="640" as="geometry" />
        </mxCell>
        <mxCell id="e0ECZhF1kEFF1rcQlNnv-22" value="" style="html=1;points=[[0,0,0,0,5],[0,1,0,0,-5],[1,0,0,0,5],[1,1,0,0,-5]];perimeter=orthogonalPerimeter;outlineConnect=0;targetShapes=umlLifeline;portConstraint=eastwest;newEdgeStyle={&quot;curved&quot;:0,&quot;rounded&quot;:0};" parent="e0ECZhF1kEFF1rcQlNnv-21" vertex="1">
          <mxGeometry x="45" y="420" width="10" height="90" as="geometry" />
        </mxCell>
        <mxCell id="e0ECZhF1kEFF1rcQlNnv-23" value="" style="line;strokeWidth=2;html=1;fillColor=#f5f5f5;fontColor=#333333;strokeColor=#666666;" parent="1" vertex="1">
          <mxGeometry x="-150" y="10" width="930" height="10" as="geometry" />
        </mxCell>
        <mxCell id="e0ECZhF1kEFF1rcQlNnv-24" value="Server" style="text;html=1;align=center;verticalAlign=middle;resizable=0;points=[];autosize=1;strokeColor=none;fillColor=none;" parent="1" vertex="1">
          <mxGeometry x="580" y="-20" width="60" height="30" as="geometry" />
        </mxCell>
        <mxCell id="e0ECZhF1kEFF1rcQlNnv-25" value="Client" style="text;html=1;align=center;verticalAlign=middle;resizable=0;points=[];autosize=1;strokeColor=none;fillColor=none;" parent="1" vertex="1">
          <mxGeometry x="155" y="-20" width="50" height="30" as="geometry" />
        </mxCell>
        <mxCell id="e0ECZhF1kEFF1rcQlNnv-26" value="ViewModel" style="shape=umlLifeline;perimeter=lifelinePerimeter;whiteSpace=wrap;html=1;container=1;dropTarget=0;collapsible=0;recursiveResize=0;outlineConnect=0;portConstraint=eastwest;newEdgeStyle={&quot;curved&quot;:0,&quot;rounded&quot;:0};" parent="1" vertex="1">
          <mxGeometry x="240" y="50" width="100" height="640" as="geometry" />
        </mxCell>
        <mxCell id="e0ECZhF1kEFF1rcQlNnv-27" value="" style="html=1;points=[[0,0,0,0,5],[0,1,0,0,-5],[1,0,0,0,5],[1,1,0,0,-5]];perimeter=orthogonalPerimeter;outlineConnect=0;targetShapes=umlLifeline;portConstraint=eastwest;newEdgeStyle={&quot;curved&quot;:0,&quot;rounded&quot;:0};" parent="e0ECZhF1kEFF1rcQlNnv-26" vertex="1">
          <mxGeometry x="45" y="170" width="10" height="110" as="geometry" />
        </mxCell>
        <mxCell id="e0ECZhF1kEFF1rcQlNnv-28" value="5. Kiểm tra định dạng" style="html=1;align=left;spacingLeft=2;endArrow=block;rounded=0;edgeStyle=orthogonalEdgeStyle;curved=0;rounded=0;" parent="e0ECZhF1kEFF1rcQlNnv-26" target="e0ECZhF1kEFF1rcQlNnv-29" edge="1">
          <mxGeometry relative="1" as="geometry">
            <mxPoint x="55" y="170" as="sourcePoint" />
            <Array as="points">
              <mxPoint x="85" y="200" />
            </Array>
          </mxGeometry>
        </mxCell>
        <mxCell id="e0ECZhF1kEFF1rcQlNnv-29" value="" style="html=1;points=[[0,0,0,0,5],[0,1,0,0,-5],[1,0,0,0,5],[1,1,0,0,-5]];perimeter=orthogonalPerimeter;outlineConnect=0;targetShapes=umlLifeline;portConstraint=eastwest;newEdgeStyle={&quot;curved&quot;:0,&quot;rounded&quot;:0};" parent="e0ECZhF1kEFF1rcQlNnv-26" vertex="1">
          <mxGeometry x="50" y="190" width="10" height="70" as="geometry" />
        </mxCell>
        <mxCell id="e0ECZhF1kEFF1rcQlNnv-30" value="" style="html=1;points=[[0,0,0,0,5],[0,1,0,0,-5],[1,0,0,0,5],[1,1,0,0,-5]];perimeter=orthogonalPerimeter;outlineConnect=0;targetShapes=umlLifeline;portConstraint=eastwest;newEdgeStyle={&quot;curved&quot;:0,&quot;rounded&quot;:0};" parent="e0ECZhF1kEFF1rcQlNnv-26" vertex="1">
          <mxGeometry x="45" y="330" width="10" height="20" as="geometry" />
        </mxCell>
        <mxCell id="e0ECZhF1kEFF1rcQlNnv-31" value="" style="html=1;points=[[0,0,0,0,5],[0,1,0,0,-5],[1,0,0,0,5],[1,1,0,0,-5]];perimeter=orthogonalPerimeter;outlineConnect=0;targetShapes=umlLifeline;portConstraint=eastwest;newEdgeStyle={&quot;curved&quot;:0,&quot;rounded&quot;:0};" parent="e0ECZhF1kEFF1rcQlNnv-26" vertex="1">
          <mxGeometry x="45" y="380" width="10" height="20" as="geometry" />
        </mxCell>
        <mxCell id="e0ECZhF1kEFF1rcQlNnv-32" value="" style="html=1;points=[[0,0,0,0,5],[0,1,0,0,-5],[1,0,0,0,5],[1,1,0,0,-5]];perimeter=orthogonalPerimeter;outlineConnect=0;targetShapes=umlLifeline;portConstraint=eastwest;newEdgeStyle={&quot;curved&quot;:0,&quot;rounded&quot;:0};" parent="e0ECZhF1kEFF1rcQlNnv-26" vertex="1">
          <mxGeometry x="45" y="490" width="10" height="110" as="geometry" />
        </mxCell>
        <mxCell id="e0ECZhF1kEFF1rcQlNnv-33" value="4. Gửi thông tin danh mục" style="html=1;verticalAlign=bottom;endArrow=block;curved=0;rounded=0;" parent="1" source="e0ECZhF1kEFF1rcQlNnv-6" edge="1">
          <mxGeometry width="80" relative="1" as="geometry">
            <mxPoint x="130" y="225" as="sourcePoint" />
            <mxPoint x="285" y="224.88" as="targetPoint" />
          </mxGeometry>
        </mxCell>
        <mxCell id="e0ECZhF1kEFF1rcQlNnv-34" value="" style="line;strokeWidth=2;direction=south;html=1;fillColor=#f5f5f5;fontColor=#333333;strokeColor=#666666;" parent="1" vertex="1">
          <mxGeometry x="400" y="-10" width="10" height="700" as="geometry" />
        </mxCell>
        <mxCell id="e0ECZhF1kEFF1rcQlNnv-35" value="11.2.1. Hiển thị thông báo cập nhật danh mục thành công,&lt;br&gt;hiển thị lại trang danh sách danh mục sau cập nhật" style="html=1;verticalAlign=bottom;endArrow=open;dashed=1;endSize=8;curved=0;rounded=0;" parent="1" source="e0ECZhF1kEFF1rcQlNnv-26" target="e0ECZhF1kEFF1rcQlNnv-2" edge="1">
          <mxGeometry x="-0.0588" relative="1" as="geometry">
            <mxPoint x="267.5" y="650" as="sourcePoint" />
            <mxPoint x="92.5" y="650" as="targetPoint" />
            <Array as="points">
              <mxPoint x="147.5" y="650" />
            </Array>
            <mxPoint as="offset" />
          </mxGeometry>
        </mxCell>
        <mxCell id="e0ECZhF1kEFF1rcQlNnv-36" value="5.1. Sai: hiển thị thông báo lỗi" style="html=1;verticalAlign=bottom;endArrow=open;dashed=1;endSize=8;curved=0;rounded=0;" parent="1" source="e0ECZhF1kEFF1rcQlNnv-29" edge="1">
          <mxGeometry relative="1" as="geometry">
            <mxPoint x="279.75" y="259.38" as="sourcePoint" />
            <mxPoint x="120" y="259" as="targetPoint" />
            <Array as="points" />
          </mxGeometry>
        </mxCell>
        <mxCell id="e0ECZhF1kEFF1rcQlNnv-37" value="5.2. Đúng:&amp;nbsp; không hiển thị &lt;br&gt;thông báo lỗi" style="html=1;verticalAlign=bottom;endArrow=open;dashed=1;endSize=8;curved=0;rounded=0;" parent="1" edge="1">
          <mxGeometry relative="1" as="geometry">
            <mxPoint x="290" y="310" as="sourcePoint" />
            <mxPoint x="120" y="310" as="targetPoint" />
            <Array as="points" />
          </mxGeometry>
        </mxCell>
        <mxCell id="e0ECZhF1kEFF1rcQlNnv-38" value="6. Nhấn cập nhật danh mục" style="html=1;verticalAlign=bottom;endArrow=block;curved=0;rounded=0;" parent="1" edge="1">
          <mxGeometry width="80" relative="1" as="geometry">
            <mxPoint x="-75" y="360" as="sourcePoint" />
            <mxPoint x="120" y="360" as="targetPoint" />
          </mxGeometry>
        </mxCell>
        <mxCell id="e0ECZhF1kEFF1rcQlNnv-39" value="7. Gửi thông tin danh mục" style="html=1;verticalAlign=bottom;endArrow=block;curved=0;rounded=0;" parent="1" edge="1">
          <mxGeometry width="80" relative="1" as="geometry">
            <mxPoint x="125" y="380.12" as="sourcePoint" />
            <mxPoint x="285" y="380" as="targetPoint" />
          </mxGeometry>
        </mxCell>
        <mxCell id="e0ECZhF1kEFF1rcQlNnv-40" value="9.1.1. Hiển thị thông báo lỗi" style="html=1;verticalAlign=bottom;endArrow=open;dashed=1;endSize=8;curved=0;rounded=0;" parent="1" edge="1">
          <mxGeometry relative="1" as="geometry">
            <mxPoint x="289.5" y="450" as="sourcePoint" />
            <mxPoint x="120" y="450" as="targetPoint" />
            <Array as="points">
              <mxPoint x="165" y="450" />
            </Array>
          </mxGeometry>
        </mxCell>
        <mxCell id="e0ECZhF1kEFF1rcQlNnv-41" value="9.2. Đúng: truy vấn dữ liệu" style="html=1;verticalAlign=bottom;endArrow=block;curved=0;rounded=0;" parent="1" edge="1">
          <mxGeometry width="80" relative="1" as="geometry">
            <mxPoint x="510" y="470" as="sourcePoint" />
            <mxPoint x="700" y="470" as="targetPoint" />
          </mxGeometry>
        </mxCell>
        <mxCell id="e0ECZhF1kEFF1rcQlNnv-42" value="10. Trả kết quả" style="html=1;verticalAlign=bottom;endArrow=open;dashed=1;endSize=8;curved=0;rounded=0;" parent="1" target="e0ECZhF1kEFF1rcQlNnv-10" edge="1">
          <mxGeometry relative="1" as="geometry">
            <mxPoint x="690" y="500" as="sourcePoint" />
            <mxPoint x="540" y="500" as="targetPoint" />
            <Array as="points" />
          </mxGeometry>
        </mxCell>
        <mxCell id="e0ECZhF1kEFF1rcQlNnv-43" value="11.1. Thất bại: Status code 400" style="html=1;verticalAlign=bottom;endArrow=open;dashed=1;endSize=8;curved=0;rounded=0;" parent="1" target="e0ECZhF1kEFF1rcQlNnv-26" edge="1">
          <mxGeometry relative="1" as="geometry">
            <mxPoint x="504.75" y="540" as="sourcePoint" />
            <mxPoint x="305.25" y="540" as="targetPoint" />
            <Array as="points" />
          </mxGeometry>
        </mxCell>
        <mxCell id="e0ECZhF1kEFF1rcQlNnv-44" value="11.2. Thành công: Status code 200" style="html=1;verticalAlign=bottom;endArrow=open;dashed=1;endSize=8;curved=0;rounded=0;" parent="1" edge="1">
          <mxGeometry relative="1" as="geometry">
            <mxPoint x="504.75" y="570" as="sourcePoint" />
            <mxPoint x="289" y="570" as="targetPoint" />
            <Array as="points" />
          </mxGeometry>
        </mxCell>
        <mxCell id="e0ECZhF1kEFF1rcQlNnv-45" value="11.1.1. Hiển thị thông báo lỗi" style="html=1;verticalAlign=bottom;endArrow=open;dashed=1;endSize=8;curved=0;rounded=0;" parent="1" edge="1">
          <mxGeometry relative="1" as="geometry">
            <mxPoint x="280" y="560" as="sourcePoint" />
            <mxPoint x="120" y="560" as="targetPoint" />
            <Array as="points">
              <mxPoint x="155" y="560" />
            </Array>
          </mxGeometry>
        </mxCell>
      </root>
    </mxGraphModel>
  </diagram>
  <diagram id="2xvxMMH6r2yMin_JrLeu" name="Page-3">
    <mxGraphModel dx="2086" dy="1626" grid="1" gridSize="10" guides="1" tooltips="1" connect="1" arrows="1" fold="1" page="1" pageScale="1" pageWidth="850" pageHeight="1100" math="0" shadow="0">
      <root>
        <mxCell id="0" />
        <mxCell id="1" parent="0" />
        <mxCell id="L0I8_jMjjOiGhvDFpkWs-1" value="Khách hàng" style="shape=umlLifeline;perimeter=lifelinePerimeter;whiteSpace=wrap;html=1;container=1;dropTarget=0;collapsible=0;recursiveResize=0;outlineConnect=0;portConstraint=eastwest;newEdgeStyle={&quot;curved&quot;:0,&quot;rounded&quot;:0};" vertex="1" parent="1">
          <mxGeometry x="-120" y="80" width="100" height="440" as="geometry" />
        </mxCell>
        <mxCell id="L0I8_jMjjOiGhvDFpkWs-2" value="" style="html=1;points=[[0,0,0,0,5],[0,1,0,0,-5],[1,0,0,0,5],[1,1,0,0,-5]];perimeter=orthogonalPerimeter;outlineConnect=0;targetShapes=umlLifeline;portConstraint=eastwest;newEdgeStyle={&quot;curved&quot;:0,&quot;rounded&quot;:0};" vertex="1" parent="L0I8_jMjjOiGhvDFpkWs-1">
          <mxGeometry x="45" y="80" width="10" height="60" as="geometry" />
        </mxCell>
        <mxCell id="L0I8_jMjjOiGhvDFpkWs-3" value="Form" style="shape=umlLifeline;perimeter=lifelinePerimeter;whiteSpace=wrap;html=1;container=1;dropTarget=0;collapsible=0;recursiveResize=0;outlineConnect=0;portConstraint=eastwest;newEdgeStyle={&quot;curved&quot;:0,&quot;rounded&quot;:0};" vertex="1" parent="1">
          <mxGeometry x="30" y="80" width="100" height="440" as="geometry" />
        </mxCell>
        <mxCell id="L0I8_jMjjOiGhvDFpkWs-4" value="" style="html=1;points=[[0,0,0,0,5],[0,1,0,0,-5],[1,0,0,0,5],[1,1,0,0,-5]];perimeter=orthogonalPerimeter;outlineConnect=0;targetShapes=umlLifeline;portConstraint=eastwest;newEdgeStyle={&quot;curved&quot;:0,&quot;rounded&quot;:0};" vertex="1" parent="L0I8_jMjjOiGhvDFpkWs-3">
          <mxGeometry x="45" y="80" width="10" height="80" as="geometry" />
        </mxCell>
        <mxCell id="L0I8_jMjjOiGhvDFpkWs-5" value="" style="html=1;points=[[0,0,0,0,5],[0,1,0,0,-5],[1,0,0,0,5],[1,1,0,0,-5]];perimeter=orthogonalPerimeter;outlineConnect=0;targetShapes=umlLifeline;portConstraint=eastwest;newEdgeStyle={&quot;curved&quot;:0,&quot;rounded&quot;:0};" vertex="1" parent="L0I8_jMjjOiGhvDFpkWs-3">
          <mxGeometry x="45" y="330" width="10" height="80" as="geometry" />
        </mxCell>
        <mxCell id="L0I8_jMjjOiGhvDFpkWs-6" value="Controller" style="shape=umlLifeline;perimeter=lifelinePerimeter;whiteSpace=wrap;html=1;container=1;dropTarget=0;collapsible=0;recursiveResize=0;outlineConnect=0;portConstraint=eastwest;newEdgeStyle={&quot;curved&quot;:0,&quot;rounded&quot;:0};" vertex="1" parent="1">
          <mxGeometry x="460" y="80" width="100" height="440" as="geometry" />
        </mxCell>
        <mxCell id="L0I8_jMjjOiGhvDFpkWs-7" value="" style="html=1;points=[[0,0,0,0,5],[0,1,0,0,-5],[1,0,0,0,5],[1,1,0,0,-5]];perimeter=orthogonalPerimeter;outlineConnect=0;targetShapes=umlLifeline;portConstraint=eastwest;newEdgeStyle={&quot;curved&quot;:0,&quot;rounded&quot;:0};" vertex="1" parent="L0I8_jMjjOiGhvDFpkWs-6">
          <mxGeometry x="45" y="180" width="10" height="180" as="geometry" />
        </mxCell>
        <mxCell id="L0I8_jMjjOiGhvDFpkWs-8" value="" style="html=1;points=[[0,0,0,0,5],[0,1,0,0,-5],[1,0,0,0,5],[1,1,0,0,-5]];perimeter=orthogonalPerimeter;outlineConnect=0;targetShapes=umlLifeline;portConstraint=eastwest;newEdgeStyle={&quot;curved&quot;:0,&quot;rounded&quot;:0};" vertex="1" parent="L0I8_jMjjOiGhvDFpkWs-6">
          <mxGeometry x="55" y="290" width="10" height="60" as="geometry" />
        </mxCell>
        <mxCell id="L0I8_jMjjOiGhvDFpkWs-9" value="6. Kiểm tra" style="html=1;align=left;spacingLeft=2;endArrow=block;rounded=0;edgeStyle=orthogonalEdgeStyle;curved=0;rounded=0;" edge="1" parent="L0I8_jMjjOiGhvDFpkWs-6" target="L0I8_jMjjOiGhvDFpkWs-8">
          <mxGeometry relative="1" as="geometry">
            <mxPoint x="60" y="260" as="sourcePoint" />
            <Array as="points">
              <mxPoint x="90" y="290" />
            </Array>
          </mxGeometry>
        </mxCell>
        <mxCell id="L0I8_jMjjOiGhvDFpkWs-10" value="1. Gửi yêu cầu xem&amp;nbsp;&lt;br&gt;&amp;nbsp;danh mục" style="html=1;verticalAlign=bottom;endArrow=block;curved=0;rounded=0;" edge="1" parent="1">
          <mxGeometry width="80" relative="1" as="geometry">
            <mxPoint x="-70" y="160" as="sourcePoint" />
            <mxPoint x="80" y="160" as="targetPoint" />
          </mxGeometry>
        </mxCell>
        <mxCell id="L0I8_jMjjOiGhvDFpkWs-11" value="3. GET Gửi yêu cầu xem thông tin" style="html=1;verticalAlign=bottom;endArrow=block;curved=0;rounded=0;" edge="1" parent="1" target="L0I8_jMjjOiGhvDFpkWs-6">
          <mxGeometry width="80" relative="1" as="geometry">
            <mxPoint x="270" y="260" as="sourcePoint" />
            <mxPoint x="470" y="260" as="targetPoint" />
          </mxGeometry>
        </mxCell>
        <mxCell id="L0I8_jMjjOiGhvDFpkWs-12" value="Database" style="shape=umlLifeline;perimeter=lifelinePerimeter;whiteSpace=wrap;html=1;container=1;dropTarget=0;collapsible=0;recursiveResize=0;outlineConnect=0;portConstraint=eastwest;newEdgeStyle={&quot;curved&quot;:0,&quot;rounded&quot;:0};" vertex="1" parent="1">
          <mxGeometry x="640" y="80" width="100" height="440" as="geometry" />
        </mxCell>
        <mxCell id="L0I8_jMjjOiGhvDFpkWs-13" value="" style="html=1;points=[[0,0,0,0,5],[0,1,0,0,-5],[1,0,0,0,5],[1,1,0,0,-5]];perimeter=orthogonalPerimeter;outlineConnect=0;targetShapes=umlLifeline;portConstraint=eastwest;newEdgeStyle={&quot;curved&quot;:0,&quot;rounded&quot;:0};" vertex="1" parent="L0I8_jMjjOiGhvDFpkWs-12">
          <mxGeometry x="45" y="210" width="10" height="40" as="geometry" />
        </mxCell>
        <mxCell id="L0I8_jMjjOiGhvDFpkWs-14" value="" style="line;strokeWidth=2;html=1;fillColor=#f5f5f5;fontColor=#333333;strokeColor=#666666;" vertex="1" parent="1">
          <mxGeometry x="-120" y="20" width="840" height="10" as="geometry" />
        </mxCell>
        <mxCell id="L0I8_jMjjOiGhvDFpkWs-15" value="Server" style="text;html=1;align=center;verticalAlign=middle;resizable=0;points=[];autosize=1;strokeColor=none;fillColor=none;" vertex="1" parent="1">
          <mxGeometry x="590" y="-10" width="60" height="30" as="geometry" />
        </mxCell>
        <mxCell id="L0I8_jMjjOiGhvDFpkWs-16" value="Client" style="text;html=1;align=center;verticalAlign=middle;resizable=0;points=[];autosize=1;strokeColor=none;fillColor=none;" vertex="1" parent="1">
          <mxGeometry x="165" y="-10" width="50" height="30" as="geometry" />
        </mxCell>
        <mxCell id="L0I8_jMjjOiGhvDFpkWs-17" value="" style="line;strokeWidth=2;direction=south;html=1;fillColor=#f5f5f5;fontColor=#333333;strokeColor=#666666;" vertex="1" parent="1">
          <mxGeometry x="410" width="10" height="520" as="geometry" />
        </mxCell>
        <mxCell id="L0I8_jMjjOiGhvDFpkWs-18" value="ViewModel" style="shape=umlLifeline;perimeter=lifelinePerimeter;whiteSpace=wrap;html=1;container=1;dropTarget=0;collapsible=0;recursiveResize=0;outlineConnect=0;portConstraint=eastwest;newEdgeStyle={&quot;curved&quot;:0,&quot;rounded&quot;:0};" vertex="1" parent="1">
          <mxGeometry x="220" y="80" width="100" height="440" as="geometry" />
        </mxCell>
        <mxCell id="L0I8_jMjjOiGhvDFpkWs-19" value="" style="html=1;points=[[0,0,0,0,5],[0,1,0,0,-5],[1,0,0,0,5],[1,1,0,0,-5]];perimeter=orthogonalPerimeter;outlineConnect=0;targetShapes=umlLifeline;portConstraint=eastwest;newEdgeStyle={&quot;curved&quot;:0,&quot;rounded&quot;:0};" vertex="1" parent="L0I8_jMjjOiGhvDFpkWs-18">
          <mxGeometry x="45" y="160" width="10" height="20" as="geometry" />
        </mxCell>
        <mxCell id="L0I8_jMjjOiGhvDFpkWs-20" value="" style="html=1;points=[[0,0,0,0,5],[0,1,0,0,-5],[1,0,0,0,5],[1,1,0,0,-5]];perimeter=orthogonalPerimeter;outlineConnect=0;targetShapes=umlLifeline;portConstraint=eastwest;newEdgeStyle={&quot;curved&quot;:0,&quot;rounded&quot;:0};" vertex="1" parent="L0I8_jMjjOiGhvDFpkWs-18">
          <mxGeometry x="45" y="310" width="10" height="80" as="geometry" />
        </mxCell>
        <mxCell id="L0I8_jMjjOiGhvDFpkWs-21" value="2. Gửi thông tin&amp;nbsp;" style="html=1;verticalAlign=bottom;endArrow=block;curved=0;rounded=0;" edge="1" parent="1">
          <mxGeometry width="80" relative="1" as="geometry">
            <mxPoint x="80.5" y="240" as="sourcePoint" />
            <mxPoint x="270" y="240" as="targetPoint" />
          </mxGeometry>
        </mxCell>
        <mxCell id="L0I8_jMjjOiGhvDFpkWs-22" value="4. Gửi truy vấn&amp;nbsp;" style="html=1;verticalAlign=bottom;endArrow=block;curved=0;rounded=0;" edge="1" parent="1" target="L0I8_jMjjOiGhvDFpkWs-13">
          <mxGeometry width="80" relative="1" as="geometry">
            <mxPoint x="520" y="290" as="sourcePoint" />
            <mxPoint x="699.5" y="290" as="targetPoint" />
          </mxGeometry>
        </mxCell>
        <mxCell id="L0I8_jMjjOiGhvDFpkWs-23" value="6.1. Thất bại:&amp;nbsp; status code:400" style="html=1;verticalAlign=bottom;endArrow=open;dashed=1;endSize=8;curved=0;rounded=0;exitX=0.5;exitY=0.722;exitDx=0;exitDy=0;exitPerimeter=0;" edge="1" parent="1" source="L0I8_jMjjOiGhvDFpkWs-7">
          <mxGeometry relative="1" as="geometry">
            <mxPoint x="510" y="390" as="sourcePoint" />
            <mxPoint x="270" y="390" as="targetPoint" />
            <Array as="points">
              <mxPoint x="380.5" y="390.38" />
            </Array>
          </mxGeometry>
        </mxCell>
        <mxCell id="L0I8_jMjjOiGhvDFpkWs-24" value="6.2. Thành công: status code:200" style="html=1;verticalAlign=bottom;endArrow=open;dashed=1;endSize=8;curved=0;rounded=0;" edge="1" parent="1">
          <mxGeometry relative="1" as="geometry">
            <mxPoint x="510" y="430" as="sourcePoint" />
            <mxPoint x="270" y="430" as="targetPoint" />
            <Array as="points" />
          </mxGeometry>
        </mxCell>
        <mxCell id="L0I8_jMjjOiGhvDFpkWs-25" value="" style="line;strokeWidth=2;direction=south;html=1;fillColor=#f5f5f5;fontColor=#333333;strokeColor=#666666;" vertex="1" parent="1">
          <mxGeometry x="410" y="45" width="10" height="475" as="geometry" />
        </mxCell>
        <mxCell id="L0I8_jMjjOiGhvDFpkWs-26" value="6.1.1. Hiển thị thông báo lỗi" style="html=1;verticalAlign=bottom;endArrow=open;dashed=1;endSize=8;curved=0;rounded=0;" edge="1" parent="1">
          <mxGeometry relative="1" as="geometry">
            <mxPoint x="271" y="410" as="sourcePoint" />
            <mxPoint x="80" y="410" as="targetPoint" />
            <Array as="points" />
          </mxGeometry>
        </mxCell>
        <mxCell id="L0I8_jMjjOiGhvDFpkWs-27" value="6.2.1. Hiển thị danh mục" style="html=1;verticalAlign=bottom;endArrow=open;dashed=1;endSize=8;curved=0;rounded=0;" edge="1" parent="1">
          <mxGeometry relative="1" as="geometry">
            <mxPoint x="271" y="470" as="sourcePoint" />
            <mxPoint x="80" y="470" as="targetPoint" />
            <Array as="points" />
          </mxGeometry>
        </mxCell>
        <mxCell id="L0I8_jMjjOiGhvDFpkWs-28" value="5. trả kết quả" style="html=1;verticalAlign=bottom;endArrow=open;dashed=1;endSize=8;curved=0;rounded=0;" edge="1" parent="1">
          <mxGeometry relative="1" as="geometry">
            <mxPoint x="690" y="330" as="sourcePoint" />
            <mxPoint x="510" y="330" as="targetPoint" />
            <Array as="points" />
          </mxGeometry>
        </mxCell>
      </root>
    </mxGraphModel>
  </diagram>
  <diagram id="YjLRrwHSVFaah-OANFQo" name="Page-4">
    <mxGraphModel dx="2086" dy="1626" grid="1" gridSize="10" guides="1" tooltips="1" connect="1" arrows="1" fold="1" page="1" pageScale="1" pageWidth="850" pageHeight="1100" math="0" shadow="0">
      <root>
        <mxCell id="0" />
        <mxCell id="1" parent="0" />
        <mxCell id="6JzGz_QJXTb-q_zeWfIc-1" value="Quản trị viên / Nhân viên" style="shape=umlLifeline;perimeter=lifelinePerimeter;whiteSpace=wrap;html=1;container=1;dropTarget=0;collapsible=0;recursiveResize=0;outlineConnect=0;portConstraint=eastwest;newEdgeStyle={&quot;curved&quot;:0,&quot;rounded&quot;:0};" vertex="1" parent="1">
          <mxGeometry x="-140" y="70" width="100" height="490" as="geometry" />
        </mxCell>
        <mxCell id="6JzGz_QJXTb-q_zeWfIc-2" value="" style="html=1;points=[[0,0,0,0,5],[0,1,0,0,-5],[1,0,0,0,5],[1,1,0,0,-5]];perimeter=orthogonalPerimeter;outlineConnect=0;targetShapes=umlLifeline;portConstraint=eastwest;newEdgeStyle={&quot;curved&quot;:0,&quot;rounded&quot;:0};" vertex="1" parent="6JzGz_QJXTb-q_zeWfIc-1">
          <mxGeometry x="45" y="80" width="10" height="60" as="geometry" />
        </mxCell>
        <mxCell id="6JzGz_QJXTb-q_zeWfIc-3" value="Form" style="shape=umlLifeline;perimeter=lifelinePerimeter;whiteSpace=wrap;html=1;container=1;dropTarget=0;collapsible=0;recursiveResize=0;outlineConnect=0;portConstraint=eastwest;newEdgeStyle={&quot;curved&quot;:0,&quot;rounded&quot;:0};" vertex="1" parent="1">
          <mxGeometry x="20" y="70" width="100" height="490" as="geometry" />
        </mxCell>
        <mxCell id="6JzGz_QJXTb-q_zeWfIc-4" value="" style="html=1;points=[[0,0,0,0,5],[0,1,0,0,-5],[1,0,0,0,5],[1,1,0,0,-5]];perimeter=orthogonalPerimeter;outlineConnect=0;targetShapes=umlLifeline;portConstraint=eastwest;newEdgeStyle={&quot;curved&quot;:0,&quot;rounded&quot;:0};" vertex="1" parent="6JzGz_QJXTb-q_zeWfIc-3">
          <mxGeometry x="45" y="80" width="10" height="30" as="geometry" />
        </mxCell>
        <mxCell id="6JzGz_QJXTb-q_zeWfIc-5" value="" style="html=1;points=[[0,0,0,0,5],[0,1,0,0,-5],[1,0,0,0,5],[1,1,0,0,-5]];perimeter=orthogonalPerimeter;outlineConnect=0;targetShapes=umlLifeline;portConstraint=eastwest;newEdgeStyle={&quot;curved&quot;:0,&quot;rounded&quot;:0};" vertex="1" parent="6JzGz_QJXTb-q_zeWfIc-3">
          <mxGeometry x="45" y="140" width="10" height="20" as="geometry" />
        </mxCell>
        <mxCell id="6JzGz_QJXTb-q_zeWfIc-6" value="Controller" style="shape=umlLifeline;perimeter=lifelinePerimeter;whiteSpace=wrap;html=1;container=1;dropTarget=0;collapsible=0;recursiveResize=0;outlineConnect=0;portConstraint=eastwest;newEdgeStyle={&quot;curved&quot;:0,&quot;rounded&quot;:0};" vertex="1" parent="1">
          <mxGeometry x="450" y="70" width="100" height="490" as="geometry" />
        </mxCell>
        <mxCell id="6JzGz_QJXTb-q_zeWfIc-7" value="" style="html=1;points=[[0,0,0,0,5],[0,1,0,0,-5],[1,0,0,0,5],[1,1,0,0,-5]];perimeter=orthogonalPerimeter;outlineConnect=0;targetShapes=umlLifeline;portConstraint=eastwest;newEdgeStyle={&quot;curved&quot;:0,&quot;rounded&quot;:0};" vertex="1" parent="6JzGz_QJXTb-q_zeWfIc-6">
          <mxGeometry x="45" y="180" width="10" height="190" as="geometry" />
        </mxCell>
        <mxCell id="6JzGz_QJXTb-q_zeWfIc-8" value="" style="html=1;points=[[0,0,0,0,5],[0,1,0,0,-5],[1,0,0,0,5],[1,1,0,0,-5]];perimeter=orthogonalPerimeter;outlineConnect=0;targetShapes=umlLifeline;portConstraint=eastwest;newEdgeStyle={&quot;curved&quot;:0,&quot;rounded&quot;:0};" vertex="1" parent="6JzGz_QJXTb-q_zeWfIc-6">
          <mxGeometry x="55" y="280" width="10" height="50" as="geometry" />
        </mxCell>
        <mxCell id="6JzGz_QJXTb-q_zeWfIc-9" value="8. Kiểm tra&amp;nbsp;" style="html=1;align=left;spacingLeft=2;endArrow=block;rounded=0;edgeStyle=orthogonalEdgeStyle;curved=0;rounded=0;" edge="1" parent="6JzGz_QJXTb-q_zeWfIc-6" target="6JzGz_QJXTb-q_zeWfIc-8">
          <mxGeometry relative="1" as="geometry">
            <mxPoint x="60" y="260" as="sourcePoint" />
            <Array as="points">
              <mxPoint x="90" y="290" />
            </Array>
          </mxGeometry>
        </mxCell>
        <mxCell id="6JzGz_QJXTb-q_zeWfIc-10" value="2. Yêu cầu xác nhận xóa" style="html=1;verticalAlign=bottom;endArrow=open;dashed=1;endSize=8;curved=0;rounded=0;" edge="1" parent="1">
          <mxGeometry relative="1" as="geometry">
            <mxPoint x="69.5" y="180" as="sourcePoint" />
            <mxPoint x="-80" y="180" as="targetPoint" />
            <Array as="points">
              <mxPoint x="-30" y="180" />
            </Array>
          </mxGeometry>
        </mxCell>
        <mxCell id="6JzGz_QJXTb-q_zeWfIc-11" value="3. Xác nhận" style="html=1;verticalAlign=bottom;endArrow=block;curved=0;rounded=0;" edge="1" parent="1" source="6JzGz_QJXTb-q_zeWfIc-2" target="6JzGz_QJXTb-q_zeWfIc-5">
          <mxGeometry width="80" relative="1" as="geometry">
            <mxPoint x="-100" y="230" as="sourcePoint" />
            <mxPoint x="130" y="230" as="targetPoint" />
          </mxGeometry>
        </mxCell>
        <mxCell id="6JzGz_QJXTb-q_zeWfIc-12" value="1. Gửi yêu cầu xóa danh mục" style="html=1;verticalAlign=bottom;endArrow=block;curved=0;rounded=0;" edge="1" parent="1">
          <mxGeometry width="80" relative="1" as="geometry">
            <mxPoint x="-90" y="150" as="sourcePoint" />
            <mxPoint x="70" y="150" as="targetPoint" />
          </mxGeometry>
        </mxCell>
        <mxCell id="6JzGz_QJXTb-q_zeWfIc-13" value="5. DELETE Gửi yêu cầu xóa danh mục&amp;nbsp;" style="html=1;verticalAlign=bottom;endArrow=block;curved=0;rounded=0;" edge="1" parent="1" target="6JzGz_QJXTb-q_zeWfIc-6">
          <mxGeometry width="80" relative="1" as="geometry">
            <mxPoint x="260" y="250" as="sourcePoint" />
            <mxPoint x="460" y="250" as="targetPoint" />
          </mxGeometry>
        </mxCell>
        <mxCell id="6JzGz_QJXTb-q_zeWfIc-14" value="Database" style="shape=umlLifeline;perimeter=lifelinePerimeter;whiteSpace=wrap;html=1;container=1;dropTarget=0;collapsible=0;recursiveResize=0;outlineConnect=0;portConstraint=eastwest;newEdgeStyle={&quot;curved&quot;:0,&quot;rounded&quot;:0};" vertex="1" parent="1">
          <mxGeometry x="630" y="70" width="100" height="490" as="geometry" />
        </mxCell>
        <mxCell id="6JzGz_QJXTb-q_zeWfIc-15" value="" style="html=1;points=[[0,0,0,0,5],[0,1,0,0,-5],[1,0,0,0,5],[1,1,0,0,-5]];perimeter=orthogonalPerimeter;outlineConnect=0;targetShapes=umlLifeline;portConstraint=eastwest;newEdgeStyle={&quot;curved&quot;:0,&quot;rounded&quot;:0};" vertex="1" parent="6JzGz_QJXTb-q_zeWfIc-14">
          <mxGeometry x="45" y="210" width="10" height="40" as="geometry" />
        </mxCell>
        <mxCell id="6JzGz_QJXTb-q_zeWfIc-16" value="" style="line;strokeWidth=2;html=1;fillColor=#f5f5f5;fontColor=#333333;strokeColor=#666666;" vertex="1" parent="1">
          <mxGeometry x="-130" y="10" width="850" height="10" as="geometry" />
        </mxCell>
        <mxCell id="6JzGz_QJXTb-q_zeWfIc-17" value="Server" style="text;html=1;align=center;verticalAlign=middle;resizable=0;points=[];autosize=1;strokeColor=none;fillColor=none;" vertex="1" parent="1">
          <mxGeometry x="580" y="-20" width="60" height="30" as="geometry" />
        </mxCell>
        <mxCell id="6JzGz_QJXTb-q_zeWfIc-18" value="Client" style="text;html=1;align=center;verticalAlign=middle;resizable=0;points=[];autosize=1;strokeColor=none;fillColor=none;" vertex="1" parent="1">
          <mxGeometry x="155" y="-20" width="50" height="30" as="geometry" />
        </mxCell>
        <mxCell id="6JzGz_QJXTb-q_zeWfIc-19" value="" style="line;strokeWidth=2;direction=south;html=1;fillColor=#f5f5f5;fontColor=#333333;strokeColor=#666666;" vertex="1" parent="1">
          <mxGeometry x="400" y="-10" width="10" height="570" as="geometry" />
        </mxCell>
        <mxCell id="6JzGz_QJXTb-q_zeWfIc-20" value="ViewModel" style="shape=umlLifeline;perimeter=lifelinePerimeter;whiteSpace=wrap;html=1;container=1;dropTarget=0;collapsible=0;recursiveResize=0;outlineConnect=0;portConstraint=eastwest;newEdgeStyle={&quot;curved&quot;:0,&quot;rounded&quot;:0};" vertex="1" parent="1">
          <mxGeometry x="210" y="70" width="100" height="490" as="geometry" />
        </mxCell>
        <mxCell id="6JzGz_QJXTb-q_zeWfIc-21" value="" style="html=1;points=[[0,0,0,0,5],[0,1,0,0,-5],[1,0,0,0,5],[1,1,0,0,-5]];perimeter=orthogonalPerimeter;outlineConnect=0;targetShapes=umlLifeline;portConstraint=eastwest;newEdgeStyle={&quot;curved&quot;:0,&quot;rounded&quot;:0};" vertex="1" parent="6JzGz_QJXTb-q_zeWfIc-20">
          <mxGeometry x="45" y="160" width="10" height="20" as="geometry" />
        </mxCell>
        <mxCell id="6JzGz_QJXTb-q_zeWfIc-22" value="4. Gửi thông tin&amp;nbsp;" style="html=1;verticalAlign=bottom;endArrow=block;curved=0;rounded=0;" edge="1" parent="1">
          <mxGeometry width="80" relative="1" as="geometry">
            <mxPoint x="70.5" y="230" as="sourcePoint" />
            <mxPoint x="260" y="230" as="targetPoint" />
          </mxGeometry>
        </mxCell>
        <mxCell id="6JzGz_QJXTb-q_zeWfIc-23" value="6. Gửi truy vấn" style="html=1;verticalAlign=bottom;endArrow=block;curved=0;rounded=0;" edge="1" parent="1" target="6JzGz_QJXTb-q_zeWfIc-15">
          <mxGeometry width="80" relative="1" as="geometry">
            <mxPoint x="500" y="280" as="sourcePoint" />
            <mxPoint x="689.5" y="280" as="targetPoint" />
          </mxGeometry>
        </mxCell>
        <mxCell id="6JzGz_QJXTb-q_zeWfIc-24" value="7. Trả kết quả" style="html=1;verticalAlign=bottom;endArrow=open;dashed=1;endSize=8;curved=0;rounded=0;" edge="1" parent="1">
          <mxGeometry relative="1" as="geometry">
            <mxPoint x="670" y="320" as="sourcePoint" />
            <mxPoint x="500" y="320" as="targetPoint" />
            <Array as="points">
              <mxPoint x="535.5" y="320" />
            </Array>
          </mxGeometry>
        </mxCell>
        <mxCell id="6JzGz_QJXTb-q_zeWfIc-25" value="8.1. Thất bại: status code:400" style="html=1;verticalAlign=bottom;endArrow=open;dashed=1;endSize=8;curved=0;rounded=0;" edge="1" parent="1">
          <mxGeometry relative="1" as="geometry">
            <mxPoint x="500" y="370" as="sourcePoint" />
            <mxPoint x="260" y="370" as="targetPoint" />
            <Array as="points" />
          </mxGeometry>
        </mxCell>
        <mxCell id="6JzGz_QJXTb-q_zeWfIc-26" value="8.2. Thành công: status code:200" style="html=1;verticalAlign=bottom;endArrow=open;dashed=1;endSize=8;curved=0;rounded=0;" edge="1" parent="1">
          <mxGeometry relative="1" as="geometry">
            <mxPoint x="500" y="400" as="sourcePoint" />
            <mxPoint x="260" y="400" as="targetPoint" />
            <Array as="points">
              <mxPoint x="370.5" y="400.38" />
            </Array>
          </mxGeometry>
        </mxCell>
        <mxCell id="6JzGz_QJXTb-q_zeWfIc-27" value="" style="line;strokeWidth=2;direction=south;html=1;fillColor=#f5f5f5;fontColor=#333333;strokeColor=#666666;" vertex="1" parent="1">
          <mxGeometry x="400" y="35" width="10" height="525" as="geometry" />
        </mxCell>
        <mxCell id="6JzGz_QJXTb-q_zeWfIc-28" value="8.1.1. Hiển thị thông báo lỗi" style="html=1;verticalAlign=bottom;endArrow=open;dashed=1;endSize=8;curved=0;rounded=0;" edge="1" parent="1">
          <mxGeometry relative="1" as="geometry">
            <mxPoint x="261" y="390" as="sourcePoint" />
            <mxPoint x="70" y="390" as="targetPoint" />
            <Array as="points" />
          </mxGeometry>
        </mxCell>
        <mxCell id="6JzGz_QJXTb-q_zeWfIc-29" value="8.2.1. Hiển thị thông báo thành công&lt;br&gt;hiển thị lại trang danh sách" style="html=1;verticalAlign=bottom;endArrow=open;dashed=1;endSize=8;curved=0;rounded=0;" edge="1" parent="1">
          <mxGeometry relative="1" as="geometry">
            <mxPoint x="261" y="439.40999999999997" as="sourcePoint" />
            <mxPoint x="70" y="439.40999999999997" as="targetPoint" />
            <Array as="points" />
          </mxGeometry>
        </mxCell>
      </root>
    </mxGraphModel>
  </diagram>
</mxfile>
